<svg xmlns:dc="http://purl.org/dc/elements/1.1/" xmlns:cc="http://creativecommons.org/ns#" xmlns:rdf="http://www.w3.org/1999/02/22-rdf-syntax-ns#" xmlns:svg="http://www.w3.org/2000/svg" xmlns="http://www.w3.org/2000/svg" version="1.1" width="142.84070790485248" height="51.460176976213106" xml:space="preserve"><rect id="backgroundrect" width="100%" height="100%" x="0" y="0" fill="none" stroke="none" class="selected"/><metadata id="metadata8"><rdf:RDF><cc:Work rdf:about=""><dc:format>image/svg+xml</dc:format><dc:type rdf:resource="http://purl.org/dc/dcmitype/StillImage"/><dc:title/></cc:Work></rdf:RDF></metadata><defs id="defs6"/><g class="currentLayer"><title>Layer 1</title><g transform="translate(5.309734344482422,7.079646110534668) scale(0.5) " id="logo" class="" fill="#ffffff" fill-opacity="1"><g id="g10" fill="#ffffff" fill-opacity="1"><g id="g12" stroke-width="0" fill="#ffffff" fill-opacity="1"><path d="m178.31034515751526,58.42787361833267 c0,0 -0.8075000120326876,0.040000000596046484 -2.1162500315345825,0.06050000090152028 c-6.027500089816749,0.12987500193528825 -23.960000357031824,0.24800000369548802 -36.95875055072829,-2.4160000360012055 c-1.9312500287778676,-0.40625000605359674 -3.7812500563450158,-0.8565000127628446 -5.443750081118196,-1.3940000207722185 c-4.312500064261258,-1.384375020628795 -6.941250103432686,-2.81600004196167 -9.863750146981328,-5.084000075757503 c0,0 -4.5575000679120405,-5.373625080073252 -1.4850000221282245,-13.325250198561701 c3.1712500472553073,-8.166500121690332 18.675000278279185,-23.042875343365594 55.823750831838694,-32.98537549152039 c2.4587500366382304,-0.6600000098347666 5.048750075232237,-1.4612500217743218 7.968750118743628,-2.060000030696392 c0,0 -55.04000082015991,-16.6625002482906 -189.1836278190557,71.95462607220746 c0,0 63.60550094779581,-34.387250512409956 88.34725131647662,-39.25250058490783 c-1.4835000221058727,1.4536250216607003 -2.2232500331290073,1.393500020764768 -5.882875087661669,7.7123751149233435 c0,0 -19.87650029618293,30.114750448744743 57.75425086060539,29.030250432584435 c0,0 8.483750126417727,-0.028750000428408393 21.196250315848737,-1.390125020714477 c8.557500127516686,-0.9213750137295577 18.992500283010305,-2.4486250364873556 30.063750447984784,-4.96475007398054 c20.915000311657785,-4.777375071188435 44.055000656470654,-13.102625195244327 60.586250902805475,-27.73050041321665 c0,0 -21.4212503192015,15.944375237589703 -70.80625105509534,21.84475032551214 " id="path14" style="fill-rule: nonzero; stroke: none;" stroke-width="0" fill="#ffffff" fill-opacity="1"/><path d="m-23.58399535094481,142.58847487242335 l-8.274412623298355,0 l9.118650135878474,-25.482850379724056 l-8.229977622636222,0 l1.7177775255968797,-4.805250071603805 l24.241675361229106,0 l-1.7182500256039206,4.805250071603805 l-7.737250115294009,0 L-23.58399535094481,142.58847487242335 " id="path16" style="fill-rule: nonzero; stroke: none;" stroke-width="0" fill="#ffffff" fill-opacity="1"/><path d="m8.78809263143689,136.02162477456966 c-0.4922500073350967,1.1640000173449516 -1.0888750162255019,2.535625037783757 -2.956500044055283,4.0732000606954095 c-1.4956250222865493,1.246575018575415 -4.464875066531822,2.9921875445870683 -9.707125144647433,2.9921875445870683 c-5.589750083293766,0 -9.145000136271118,-1.953125029103831 -8.701125129656866,-7.023012604651042 c0.21487500320188702,-2.4526250365469604 1.3975000208243726,-6.068250090423971 2.8183750419970597,-8.437000125721097 c1.6880000251531604,-2.95112504397519 4.7128750702273114,-6.3173750941362234 11.90525017740205,-6.3173750941362234 c4.245625063264743,0 9.212875137282536,1.1641250173468143 8.70412512970157,6.982000104039908 c-0.13875000206753618,1.5796250235382472 -0.5655000084266065,2.9926250445935882 -1.1298750168364495,4.488750066887587 l-14.731500219516457,0 c-0.41212500614114106,1.2466250185761603 -0.8676250129286205,2.493625037157908 -0.9843750146683308,3.823750056978315 c-0.19675000293180353,2.244112533439882 1.0522500156797467,3.3246875495417045 2.958000044077635,3.3246875495417045 c3.3798750503640624,0 4.4365000661090015,-2.660187539639883 4.935125073539093,-3.9071875582216307 l6.8896251026634125,0 zm-5.007875074623153,-6.15037509164773 c0.16650000248104344,-0.4156250061932951 0.5678750084619971,-1.5381250229198487 0.6592500098235908,-2.5767500383965674 c0.15237500227056439,-1.74562502601184 -0.7856250117067248,-2.9091250433493405 -2.648500039465725,-2.9091250433493405 c-3.250000048428774,0 -4.68500006981194,3.033625045204535 -5.6801250846404585,5.485875081745908 l7.669375114282593,0 " id="path18" style="fill-rule: nonzero; stroke: none;" stroke-width="0" fill="#ffffff" fill-opacity="1"/><path d="M35.228968025436615,135.89712477271445 C34.00634300721809,138.97274981854483 31.090342963766304,143.08701237985213 23.03121784367599,143.08701237985213 c-4.246125063272193,0 -9.621500143371522,-0.9555625142389909 -9.076125135244801,-7.189887607137673 c0.13087500195018942,-1.4961250222939997 0.5146250076685106,-2.9087500433437525 0.9272500138171017,-4.155875061927364 c0.7055000105127692,-2.119625031584874 2.04337503044866,-5.5272500823624435 5.240750078093261,-7.896000117659569 c3.3305000496283172,-2.4111250359285625 7.0243751046713445,-2.535625037783757 8.670375129198655,-2.535625037783757 c2.0366250303480773,0 9.344750139247626,0.1660000024735928 8.806125131221489,6.3173750941362234 c-0.036625000545755064,0.4156250061932951 -0.10200000151991846,0.6646250099036847 -0.18850000280886894,1.1641250173468143 l-6.715750100072473,0 c0.13712500204332173,-0.5825000086799266 0.2607500038854778,-0.9980000148713587 0.3076250045839698,-1.5381250229198487 c0.1673750024940819,-1.9116250284854321 -0.8750000130385166,-2.867625042730942 -2.565500038228929,-2.867625042730942 c-2.166000032275915,0 -3.3153750494029373,1.2470000185817478 -4.160625061998143,2.4931250371504574 c-1.5903750236984346,2.3276250346843153 -3.3667500501684846,7.273000108376145 -3.577125053303317,9.684125144304707 c-0.22950000341981655,2.6176500390060244 1.260750018786639,3.4076875507785007 2.8207500420324503,3.4076875507785007 c1.8637500277720391,0 3.5463750528451055,-0.9145500136278569 4.819375071814283,-4.0731875606952235 l6.889125102655962,0 " id="path20" style="fill-rule: nonzero; stroke: none;" stroke-width="0" fill="#ffffff" fill-opacity="1"/><path d="m58.3007183692325,142.58847487242335 l-7.0628751052450385,0 l4.413500065766275,-12.301725183309987 c0.3437500051222744,-0.9556250142399226 0.9038750134687877,-2.410625035921112 0.987750014718622,-3.3667500501684846 c0.13825000206008556,-1.5786250235233459 -0.951625014180318,-1.9946250297222288 -1.991625029677525,-1.9946250297222288 c-1.2568750187288968,0 -2.6073750388529153,0.5820000086724761 -3.5502500529028476,1.4546250216756016 c-0.9433750140573831,0.8730000130087142 -1.2291250183153897,1.6626250247750431 -1.9126250285003334,3.5327500526420774 l-4.532250067535788,12.675725188883021 l-7.0190001045912505,0 l10.45400015577674,-29.341350437220186 l7.062500105239451,0 l-3.9032500581629574,10.930250162873417 c1.6542500246502458,-1.0806250161025672 4.226500062979757,-2.743250040877611 7.866250117216259,-2.743250040877611 c3.0326250451896337,0 5.064375075465068,1.5381250229198487 4.805625071609393,4.4888750668894515 c-0.10837500161491338,1.2470000185817478 -0.6802500101365153,2.825625042105094 -1.1357500169239938,4.072750060688704 L58.3007183692325,142.58847487242335 " id="path22" style="fill-rule: nonzero; stroke: none;" stroke-width="0" fill="#ffffff" fill-opacity="1"/><path d="m87.37259380243718,142.58847487242335 l-20.796875309897587,0 l10.83537516145967,-30.28810045132786 l19.45550028990954,0 l-1.7137500255368652,4.761750070955604 l-11.359875169275329,0 l-2.6626250396762052,7.421875110594556 l10.778875160617753,0 l-1.7138750255387278,4.762250070963055 l-10.733875159947202,0 l-3.077250045854598,8.580500127859414 l12.657750188615173,0 l-1.669375024875626,4.761725070955232 " id="path24" style="fill-rule: nonzero; stroke: none;" stroke-width="0" fill="#ffffff" fill-opacity="1"/><path d="m127.0153443931602,142.58847487242335 l-7.062500105239451,0 l4.70250007007271,-13.132850195694715 c0.2812500041909517,-0.7485000111535194 0.6325000094249846,-1.787125026630238 0.693750010337681,-2.4941250371653587 c0.07750000115484,-0.872000012993813 -0.3050000045448544,-1.953125029103831 -1.9512500290758907,-1.953125029103831 c-1.0400000154972078,0 -2.2100000329315663,0.49900000743567957 -3.012500044889748,1.2471250185836107 c-0.8912500132806601,0.7900000117719174 -1.221250018198043,1.5791250235307968 -1.9550000291317704,3.5326250526402143 l-4.543750067707151,12.800350190740078 l-7.062500105239451,0 l4.645000069215893,-12.966850193221124 c0.45125000672414906,-1.2050000179558993 0.7487500111572446,-2.1191250315774233 0.800000011920929,-2.7016250402573494 c0.07625000113621361,-0.8725000130012632 -0.2625000039115548,-1.953125029103831 -1.9100000284612175,-1.953125029103831 c-0.9950000148266551,0 -2.16625003227964,0.49900000743567957 -3.003750044759363,1.1641250173468143 c-1.0262500152923169,0.8305000123754147 -1.3187500196509063,1.7036250253859908 -2.05375003060326,3.6571250544954097 l-4.543750067707151,12.800350190740078 l-7.062500105239451,0 l7.452500111050903,-20.779725309642032 l7.018750104587525,0 l-0.8687500129453842,2.493625037157908 c2.916250043455511,-2.119625031584874 5.493750081863254,-2.868250042740256 7.57375011285767,-2.868250042740256 c2.4262500361539425,0 4.37875006524846,0.956125014247373 4.641250069160015,3.4082500507868825 c0.7012500104494397,-0.5820000086724761 1.6325000243261456,-1.3296250198129564 3.1250000465661287,-2.0366250303480773 c1.7687500263564293,-0.9140000136196615 3.7162500553764404,-1.3716250204388054 5.276250078622252,-1.3716250204388054 c1.1700000174343586,0 5.082500075735151,0.3331250049639494 4.722500070370734,4.447375066271052 c-0.09750000145286326,1.1225000167265535 -0.5137500076554719,2.4101250359136612 -1.151250017154962,4.238750063162296 l-4.470000066608191,12.468225185791031 " id="path26" style="fill-rule: nonzero; stroke: none;" stroke-width="0" fill="#ffffff" fill-opacity="1"/><path d="m137.83409455437211,151.15 l-7.105000105872751,0 l10.49750015642494,-29.341250437218694 l7.106250105891377,0 l-0.9050000134855511,2.4101250359136612 c1.2025000179186465,-0.8731250130105771 3.841250057239086,-2.7847500414960087 7.437500110827386,-2.7847500414960087 c1.5150000225752591,0 2.912500043399632,0.3746250055823476 3.9450000587850806,1.4546250216756016 c1.3412500199861825,1.4966250223014508 1.2575000187382102,3.449750051405281 1.1625000173225999,4.530250067505985 c-0.21125000314787043,2.4107500359229745 -1.0175000151619316,5.1948750774096695 -2.348750034999102,8.021000119522215 c-1.0625000158324838,2.2441250334400684 -3.735000055655837,7.522500112093985 -10.276250153128057,7.522500112093985 c-3.8137500568293037,0 -5.038750075083226,-1.8286125272484497 -5.610000083595515,-2.7426750408690426 L137.83409455437211,151.15 zm5.792500086314977,-16.167000240907075 c-0.4600000068545343,1.2886250192020088 -0.6337500094436112,1.787125026630238 -0.677500010095537,2.2856250340584667 c-0.15625000232830644,1.7871375266304241 1.440000021457672,2.368675035296008 2.5237500376068063,2.368675035296008 c2.4687500367872417,0 3.8312500570900747,-2.2021750328149645 4.290000063925982,-2.991675044579431 c1.7675000263378027,-2.867750042732805 3.0637500456534332,-7.273000108376145 3.2087500478141013,-8.935625133151188 c0.2550000037997962,-2.9091250433493405 -1.7312500257976353,-2.9926250445935882 -2.165000032261014,-2.9926250445935882 c-0.5625000083819032,0 -1.8325000273063778,0.16650000248104344 -3.812500056810677,1.9951250297296792 c-0.23625000352039943,0.20750000309199104 -0.42625000635161997,0.4160000061988832 -0.6625000098720193,0.6235000092908741 l-2.7050000403076413,7.64700011394918 " id="path28" style="fill-rule: nonzero; stroke: none;" stroke-width="0" fill="#ffffff" fill-opacity="1"/><path d="m172.16284506591037,143.08701237985213 c-5.67500008456409,0 -9.251250137854369,-2.202637532821856 -8.786250130925328,-7.522512612094172 c0.3200000047683717,-3.6571250544954097 2.2337500332854687,-8.686000129431486 5.680000084638595,-11.428625170299783 c3.3525000499561433,-2.660250039640814 7.52750011216849,-2.8262500421144066 9.390000139921904,-2.8262500421144066 c3.0325000451877715,0 6.090000090748071,0.7071250105369838 7.618750113528222,3.0342500452138483 c0.8450000125914818,1.2465000185742974 1.0850000161677598,2.9506250439677393 0.9437500140629711,4.571750068124383 c-0.10625000158324842,1.2046250179503113 -0.4275000063702466,2.4101250359136612 -0.7937500118277967,3.615250053871423 c-2.4775000369176268,7.52245011209324 -6.772500100918114,10.556137657298706 -14.052500209398568,10.556137657298706 zm8.185000121966004,-15.293887727896683 c0.14875000221654772,-1.7036250253859908 -0.4875000072643163,-3.3247500495426356 -2.6987500402145086,-3.3247500495426356 c-2.078750030975789,0 -3.3337500496767465,1.4546250216756016 -3.8650000575929884,2.0781250309664756 c-1.9975000297650691,2.535125037776306 -3.452500051446259,8.270500123240053 -3.5950000535696747,9.890625147381797 c-0.17000000253319741,1.9541250291187318 0.6950000103563075,3.450175051411614 2.7312500406987965,3.450175051411614 c3.1625000471249223,0 4.95625007385388,-3.6571750544961548 6.4862500966526575,-8.270550123240799 c0.24000000357627876,-0.7480000111460686 0.8225000122562053,-2.4521250365395098 0.9412500140257182,-3.8236250569764527 " id="path30" style="fill-rule: nonzero; stroke: none;" stroke-width="0" fill="#ffffff" fill-opacity="1"/><path d="m213.67284568445757,142.58847487242335 l-7.7562501155771315,0 l0.9062500135041778,-10.348600154206157 c0.16375000244006524,-1.3711250204313545 0.17375000258907683,-1.4956250222865493 0.37625000560656185,-2.8257500421069564 c-0.6737500100396577,1.2881250191945581 -0.8762500130571428,1.6206250241491948 -1.636250024382025,2.867250042725354 l-6.535000097379089,10.30710015358776 l-7.7987501162104325,0 l1.8187500271014874,-20.779725309642032 l6.9325001033023,0 l-1.6112500240094962,12.468250185791403 c-0.1525000022724272,1.246000018566847 -0.17375000258907683,1.4955000222846868 -0.4175000062212348,2.7841250414866954 c0.5212500077672301,-0.9971250148583206 0.5212500077672301,-0.9971250148583206 1.185000017657876,-2.1611250322032722 l7.9500001184642315,-13.091250195074826 l5.978750089090317,0 l-1.2350000184029342,12.135250180829315 c-0.16750000249594463,1.4130000210553408 -0.19750000294297942,1.7455000260099771 -0.4437500066123903,3.075625045830384 c0.5400000080466271,-1.2056250179652124 0.645000009611249,-1.4131250210572033 1.3087500195018948,-2.5771250384021553 l7.216250107530504,-12.633750188257544 l6.7162501000799235,0 l-12.955000193044544,20.779725309642032 " id="path32" style="fill-rule: nonzero; stroke: none;" stroke-width="0" fill="#ffffff" fill-opacity="1"/><path d="m246.74409617725763,136.02162477456966 c-0.49125000732019547,1.1640000173449516 -1.0887500162236394,2.535625037783757 -2.956250044051558,4.0732000606954095 c-1.4950000222772362,1.246575018575415 -4.4637500665150585,2.9921875445870683 -9.706250144634396,2.9921875445870683 c-5.5900000832974905,0 -9.145000136271118,-1.953125029103831 -8.701250129658728,-7.023012604651042 c0.21375000318512327,-2.4526250365469604 1.3975000208243726,-6.068250090423971 2.8175000419840215,-8.437000125721097 c1.6887500251643361,-2.95112504397519 4.712500070221722,-6.3173750941362234 11.905000177398323,-6.3173750941362234 c4.246250063274055,0 9.213750137295573,1.1641250173468143 8.705000129714609,6.982000104039908 c-0.13875000206753618,1.5796250235382472 -0.5662500084377826,2.9926250445935882 -1.130000016838312,4.488750066887587 l-14.73125021951273,0 c-0.412500006146729,1.2466250185761603 -0.8687500129453842,2.493625037157908 -0.9850000146776438,3.823750056978315 c-0.1962500029243529,2.244112533439882 1.052500015683472,3.3246875495417045 2.958750044088811,3.3246875495417045 c3.3800000503659247,0 4.4350000660866495,-2.660187539639883 4.93500007353723,-3.9071875582216307 l6.888750102650374,0 zm-5.006250074598938,-6.15037509164773 c0.1650000024586917,-0.4156250061932951 0.5662500084377826,-1.5381250229198487 0.6575000097975134,-2.5767500383965674 c0.15375000229105354,-1.74562502601184 -0.7850000116974116,-2.9091250433493405 -2.6475000394508243,-2.9091250433493405 c-3.250000048428774,0 -4.68500006981194,3.033625045204535 -5.680000084638595,5.485875081745908 l7.6700001142919065,0 " id="path34" style="fill-rule: nonzero; stroke: none;" stroke-width="0" fill="#ffffff" fill-opacity="1"/><path d="m256.95784632945436,142.58847487242335 l-7.061250105220824,0 l7.407500110380352,-20.779725309642032 l7.062500105239451,0 l-1.5300000227987771,4.114250061307103 c1.5612500232644382,-1.9946250297222288 3.5125000523403287,-4.4888750668894515 6.806250101421028,-4.4888750668894515 c0.8225000122562053,0 1.2412500184960662,0.16700000248849403 1.700000025331974,0.3746250055823476 l-1.9787500294856728,5.278250078652054 c-0.6212500092573464,-0.33300000496208687 -1.3612500202842057,-0.7900000117719174 -2.6175000390037897,-0.7900000117719174 c-3.9850000593811274,0 -5.418750080745667,3.9897500594519077 -6.166250091884285,6.108875091029331 l-3.6225000539794565,10.182600151732565 " id="path36" style="fill-rule: nonzero; stroke: none;" stroke-width="0" fill="#ffffff" fill-opacity="1"/></g></g></g></g></svg>